HIERARCHY
ROOT Hips
{
	OFFSET	0.00	0.00	0.00
	CHANNELS 6 Xposition Yposition Zposition Zrotation Xrotation Yrotation
	JOINT LeftUpLeg
	{
		OFFSET	 0.126116	-0.065224	 0.014019
		CHANNELS 3 Zrotation Xrotation Yrotation
		JOINT LeftLeg
		{
			OFFSET	 0.000000	 0.569914	 0.000000
			CHANNELS 3 Zrotation Xrotation Yrotation
			JOINT LeftFoot
			{
				OFFSET	 0.000000	 0.544423	 0.000000
				CHANNELS 3 Zrotation Xrotation Yrotation
				JOINT LeftToeBase
				{
					OFFSET	 0.000000	 0.207117	 0.000000
					CHANNELS 3 Zrotation Xrotation Yrotation
					End Site
					{
						OFFSET	 0.000000	 0.207117	 0.000000
					}
				}
			}
		}
	}
	JOINT RightUpLeg
	{
		OFFSET	-0.124023	-0.065224	 0.008373
		CHANNELS 3 Zrotation Xrotation Yrotation
		JOINT RightLeg
		{
			OFFSET	 0.000000	 0.570047	 0.000000
			CHANNELS 3 Zrotation Xrotation Yrotation
			JOINT RightFoot
			{
				OFFSET	 0.000000	 0.544354	 0.000000
				CHANNELS 3 Zrotation Xrotation Yrotation
				JOINT RightToeBase
				{
					OFFSET	 0.000000	 0.207540	 0.000000
					CHANNELS 3 Zrotation Xrotation Yrotation
					End Site
					{
						OFFSET	 0.000000	 0.207540	 0.000000
					}
				}
			}
		}
	}
	JOINT Spine
	{
		OFFSET	 0.000184	 0.117403	 0.007763
		CHANNELS 3 Zrotation Xrotation Yrotation
		JOINT Spine1
		{
			OFFSET	 0.000000	 0.137269	 0.000000
			CHANNELS 3 Zrotation Xrotation Yrotation
			JOINT Spine2
			{
				OFFSET	 0.000000	 0.156879	 0.000000
				CHANNELS 3 Zrotation Xrotation Yrotation
				JOINT LeftShoulder
				{
					OFFSET	 0.080501	 0.160143	 0.002496
					CHANNELS 3 Zrotation Xrotation Yrotation
					JOINT LeftArm
					{
						OFFSET	 0.000000	 0.164363	 0.000000
						CHANNELS 3 Zrotation Xrotation Yrotation
						JOINT LeftForeArm
						{
							OFFSET	 0.000000	 0.364576	 0.000000
							CHANNELS 3 Zrotation Xrotation Yrotation
							JOINT LeftHand
							{
								OFFSET	 0.000000	 0.360812	 0.000000
								CHANNELS 3 Zrotation Xrotation Yrotation
								JOINT LeftHandIndex1
								{
									OFFSET	 0.000000	 0.086006	 0.000000
									CHANNELS 3 Zrotation Xrotation Yrotation
									JOINT LeftHandIndex2
									{
										OFFSET	 0.000000	 0.047237	 0.000000
										CHANNELS 3 Zrotation Xrotation Yrotation
										JOINT LeftHandIndex3
										{
											OFFSET	-0.004284	 0.038165	 0.000551
											CHANNELS 3 Zrotation Xrotation Yrotation
											End Site
											{
												OFFSET	-0.004284	 0.038165	 0.000551
											}
										}
									}
								}
							}
						}
					}
				}
				JOINT Neck
				{
					OFFSET	 0.000000	 0.176489	 0.000000
					CHANNELS 3 Zrotation Xrotation Yrotation
					JOINT Head
					{
						OFFSET	 0.000000	 0.077941	 0.001747
						CHANNELS 3 Zrotation Xrotation Yrotation
						End Site
						{
							OFFSET	 0.000000	 0.077941	 0.001747
						}
					}
				}
				JOINT RightShoulder
				{
					OFFSET	-0.080363	 0.159706	-0.000306
					CHANNELS 3 Zrotation Xrotation Yrotation
					JOINT RightArm
					{
						OFFSET	 0.000000	 0.164196	 0.000000
						CHANNELS 3 Zrotation Xrotation Yrotation
						JOINT RightForeArm
						{
							OFFSET	 0.000000	 0.365611	 0.000000
							CHANNELS 3 Zrotation Xrotation Yrotation
							JOINT RightHand
							{
								OFFSET	 0.000000	 0.360648	 0.000000
								CHANNELS 3 Zrotation Xrotation Yrotation
								JOINT RightHandIndex1
								{
									OFFSET	 0.000000	 0.069977	 0.000000
									CHANNELS 3 Zrotation Xrotation Yrotation
									JOINT RightHandIndex2
									{
										OFFSET	 0.000000	 0.052305	 0.000000
										CHANNELS 3 Zrotation Xrotation Yrotation
										JOINT RightHandIndex3
										{
											OFFSET	 0.009002	 0.042196	 0.000782
											CHANNELS 3 Zrotation Xrotation Yrotation
											End Site
											{
												OFFSET	 0.009002	 0.042196	 0.000782
											}
										}
									}
								}
							}
						}
					}
				}
			}
		}
	}
}
MOTION
Frames:    4
Frame Time: 0.03333334
-0.040069	 1.214526	-3.826478	-2.243515	-2.676910	-171.732600	 176.516200	-0.563707	-12.876420	 3.857420	-26.910050	 7.456049	 36.574420	 86.384160	-32.419250	 1.845391	 35.213160	-2.978807	 169.016800	 32.646760	 25.053100	-0.960358	-12.565710	 11.476150	 3.909059	 61.543550	-7.118928	-1.690897	 33.404020	 2.897413	-0.723449	 5.401419	-10.959770	 2.574521	 3.272949	-4.344361	-2.763467	-3.853817	 6.882577	-121.293800	 9.287603	 94.958820	 26.457830	 25.484350	-6.688608	 9.942204	-0.245830	-8.000129	 19.154240	-19.884250	-14.300150	 4.757613	 19.832530	-1.759481	-5.862100	 22.286490	 2.463911	 5.363092	 5.080940	-0.155772	-0.169868	-4.904043	 0.209055	-1.626933	-2.970364	-1.152544	 118.115100	-1.154142	-90.292720	 12.463480	 47.519690	-12.110020	-9.992047	-0.188384	 7.982198	-6.270473	 6.610911	-36.225960	-1.683228	 19.522200	 0.965056	 14.466720	 38.694990	-9.559093	-8.529176	 17.608800	-0.811585
-0.028405	 1.182464	-3.993100	-2.063245	-2.663588	-171.165100	 178.814000	-8.126616	-11.231000	 4.130851	-28.522480	 5.630616	-15.245540	 87.741810	 16.452600	 2.921386	 45.796890	-3.639287	 169.152400	 39.910480	 22.840050	-1.471465	-18.855370	 10.209970	 3.361764	 66.985560	-5.656624	-1.814096	 34.845220	 2.960916	-0.097485	 5.026005	-11.567830	 2.218540	 3.584612	-4.137165	-2.065118	-4.388735	 4.511389	-121.127100	 9.513637	 95.054630	 27.402690	 23.323590	-9.223029	 10.121570	-0.247593	-8.220387	 25.158630	-20.215850	-11.345140	 4.998104	 20.316600	-1.873954	-5.861645	 23.122090	 2.556900	 5.411196	 6.215936	-0.136230	-0.147083	-5.048995	 0.280079	-1.403064	-2.966007	-1.086524	 118.305100	-1.574332	-90.104320	 15.185450	 45.282170	-11.481530	-10.151070	-0.188907	 8.202876	-2.516802	 5.595607	-36.795210	-1.461304	 13.791500	 0.875172	 13.595430	 33.236320	-7.874413	-8.491625	 12.136570	-0.464582
-0.017560	 1.167817	-4.098824	-1.116328	-1.642294	-169.316700	-177.757500	-19.759080	-9.296582	 2.922978	-21.042800	 2.984746	-17.330330	 69.780860	 16.008340	 5.776409	 62.821330	-5.087077	 171.519400	 38.645380	 20.341330	-1.576934	-20.101310	 10.731960	-4.071522	 59.490030	-3.974382	-1.826811	 34.991270	 2.967625	 1.110377	 4.949348	-12.500000	 1.864216	 3.119051	-3.987291	-1.217107	-4.051236	 1.861585	-121.036800	 9.240829	 94.908890	 26.827530	 22.441490	-9.037708	 10.306600	-0.251870	-8.373428	 27.254990	-14.201960	-9.858429	 5.062641	 20.651550	-1.918218	-5.862723	 23.982980	 2.653318	 5.456660	 7.294633	-0.118511	-0.117203	-5.157185	 0.289757	-1.543732	-1.985298	-1.235106	 118.756400	-2.187925	-89.828890	 17.091680	 43.108360	-11.294940	-10.179230	-0.186073	 8.357286	-1.616789	 6.757788	-33.576520	-1.517786	 9.990467	 0.898729	 13.159820	 29.719660	-6.893944	-8.451630	 8.727167	-0.249716
-0.007850	 1.185408	-4.268228	-0.229910	 0.027932	-170.110000	-174.566800	-6.829554	-13.006930	 7.979027	-46.322420	 7.845912	-20.291930	 67.221700	 18.463210	 4.954408	 59.269810	-4.268755	 175.046600	 34.601900	 17.853600	-2.744035	-32.484080	 7.546679	-12.874180	 64.361950	 4.727718	-1.695027	 33.453110	 2.899501	 1.944521	 5.613012	-8.673762	 0.541917	 2.667644	-2.325250	 0.151759	-3.609326	-1.601363	-120.742300	 8.516800	 94.522720	 24.815820	 28.958020	-7.346924	 10.538740	-0.258863	-8.514809	 24.958220	-5.992901	-0.712848	 5.027211	 21.892370	-1.982357	-5.867479	 25.298460	 2.801984	 5.528313	 9.004954	-0.092102	-0.046025	-5.106740	 0.133270	-1.744062	-1.315640	-2.335690	 119.317900	-1.884772	-89.979520	 10.376000	 45.488160	-6.806733	-10.330070	-0.188272	 8.499693	-2.779676	 4.976417	-20.219800	-1.858145	 11.662810	 1.048940	 13.355870	 31.390510	-7.351078	-8.466248	 9.854488	-0.320778
